<?xml version="1.0" encoding="utf-8"?>
<!-- Generator: Adobe Illustrator 24.0.0, SVG Export Plug-In . SVG Version: 6.00 Build 0)  -->
<svg version="1.1" id="Layer_1" xmlns="http://www.w3.org/2000/svg" xmlns:xlink="http://www.w3.org/1999/xlink" x="0px" y="0px"
	 viewBox="0 0 567.4 167.3" style="enable-background:new 0 0 567.4 167.3;" xml:space="preserve">
<style type="text/css">
	.st0{fill:#FFFFFF;}
	.st1{fill:#FFFFFF;stroke:#FFFFFF;stroke-miterlimit:10;}
</style>
<title>Vertical white no tagline</title>
<path class="st0" d="M120.6,72.7c0.4,2.3,0.9,4.3,1.3,6.5h2.9c12.2,0,24.3,0,36.5,0c0.8,0,1.6,0,2.4,0.1c2.4,0.4,4,2.7,3.6,5.1
	c-0.3,1.8-1.7,3.3-3.6,3.6c-0.8,0.1-1.6,0.1-2.4,0.1c-12.2,0-24.3,0-36.5,0h-2.9l-1.4,6.5c7,0,13.8,0,20.5,0c1.9,0,3.9-0.1,5.8,0.1
	c2.4,0.2,4.1,2.2,4,4.6c-0.1,1.9-1.5,3.5-3.3,3.9c-0.9,0.2-1.9,0.3-2.9,0.2c-8.6,0-17.2,0-25.8,0c-1.4,0-2.7,0.7-3.5,1.8
	c-3.2,3.6-6.6,6.9-10.2,10.2c-1.1,0.8-1.7,2-1.7,3.4c0.1,9.1,0,18.2,0,27.3c0,3.3-1.5,5.2-4,5.4c-2.8,0.2-4.8-1.6-4.8-4.7
	c0-8,0-15.9,0-23.9v-2.2l-6.6,1.3v3c0,12.3,0,24.6,0,36.9c0,3.5-1.6,5.5-4.4,5.5s-4.4-2-4.4-5.4c0-12.3,0-24.6,0-36.9v-3l-7-1.5
	c0,0.9-0.1,1.8-0.1,2.6c0,7.7,0,15.5,0,23.2c0,3.4-1.5,5.2-4.3,5.2c-2.7,0-4.4-1.9-4.5-5.2c0-9.3-0.1-18.5,0-27.8
	c0-1.4-0.7-2.7-1.8-3.6c-3.4-3.1-6.6-6.3-9.6-9.8c-0.8-1.2-2.2-1.8-3.6-1.8c-9,0.1-18,0-27,0c-3.2,0-5.1-1.3-5.4-3.7
	c-0.5-2.9,1.5-5.1,4.6-5.1c7.8,0,15.6,0,23.4,0h2.7L45.4,88h-4.7C29.1,88,17.6,88,6,88c-0.7,0-1.4,0-2.2-0.1
	c-2.4-0.3-4.1-2.5-3.8-4.9c0.3-1.9,1.8-3.5,3.7-3.8c0.8-0.1,1.6-0.1,2.4-0.1c12.1,0,24.1,0,36.2,0h3c0.4-2.2,0.9-4.2,1.4-6.5H44
	c-7.6,0-15.3,0-22.9,0c-3.4,0-5.2-1.6-5.2-4.3c0-2.7,1.9-4.4,5.2-4.4c9,0,18-0.1,27,0c1.6,0.1,3.1-0.7,4-2c2.9-3.4,6.1-6.6,9.4-9.6
	c1.2-0.9,1.9-2.3,1.8-3.8c-0.1-9.2-0.1-18.3,0-27.5c0-3.1,1.5-4.9,3.9-5.2c2.8-0.3,4.8,1.6,4.8,4.7c0,7.8,0,15.6,0,23.4v2.9l7.1-1.5
	v-3c0-12.1,0-24.1,0-36.2c0-0.7,0-1.4,0-2.2c0.2-2.4,2.2-4.1,4.6-4C86.2,0.1,88,2,88,4.2c0.1,1.5,0,3.1,0,4.6c0,11.3,0,22.5,0,33.8
	v2.7l6.6,1.4v-2.7c0-7.6,0-15.3,0-22.9c0-3.4,1.5-5.2,4.3-5.2c2.7,0,4.5,1.9,4.5,5.1c0,9.2,0,18.3,0,27.5c0,1.3,0.6,2.6,1.7,3.4
	c3.5,3.1,6.9,6.5,10,10c1,1.3,2.5,2.1,4.2,2c8.4-0.1,16.7,0,25.1,0c0.8,0,1.6,0,2.4,0.1c2.4,0.1,4.2,2.2,4,4.6c0,0,0,0,0,0
	c0,2.3-1.9,4.1-4.2,4.1c-0.1,0-0.2,0-0.2,0c-7.6,0.1-15.3,0-22.9,0L120.6,72.7z M83.6,54.1c-16.3,0-29.5,13.3-29.5,29.6
	c0,16.3,13.3,29.5,29.6,29.5c16.3,0,29.5-13.2,29.5-29.5c0.1-16.2-12.9-29.4-29.1-29.6C83.9,54.1,83.8,54.1,83.6,54.1z"/>
<path class="st0" d="M76,71.6c-1,0-2,0.2-2.9,0.6c-1.7,0.8-3.1,2.1-3.9,3.7c-0.6,1.3-1,2.8-1,4.3c0,1.5,0.3,2.9,0.9,4.3
	c1.3,3,3.6,5.4,6,7.5c2.8,2.5,5.6,4.8,8.6,7c3-2.2,5.8-4.5,8.6-7c2.4-2.1,4.8-4.5,6-7.5c0.6-1.4,0.9-2.8,0.9-4.3
	c0-1.5-0.3-2.9-1-4.3c-0.8-1.7-2.2-3-3.9-3.7c-1.7-0.7-3.5-0.8-5.2-0.2c-1.4,0.5-2.7,1.4-3.7,2.6c-1,1.2-1.6,2.7-1.8,4.3
	c-0.2-1.6-0.8-3.1-1.8-4.3c-0.9-1.2-2.2-2.1-3.7-2.6C77.5,71.7,76.7,71.6,76,71.6z"/>
<g id="Wichita">
	<path class="st1" d="M267.7,91.3l-18.6,56.9h-17.4l-11-34.6l-11.5,34.6H192l-18.6-56.9h16.7l11.5,36.3l12.1-36.3h14.9l11.5,36.7
		l12-36.7H267.7z"/>
	<path class="st1" d="M275.8,91.3H292v56.9h-16.2V91.3z"/>
	<path class="st1" d="M315.4,145.5c-4.7-2.4-8.5-6-11.3-10.5c-5.5-9.5-5.5-21.1,0-30.6c2.7-4.5,6.6-8.1,11.3-10.5
		c5-2.6,10.6-3.9,16.2-3.8c4.9-0.1,9.7,0.9,14.2,2.8c4.1,1.8,7.7,4.5,10.5,8l-10.3,9.3c-3.7-4.4-8.2-6.7-13.5-6.7
		c-2.9-0.1-5.8,0.6-8.3,2c-2.4,1.3-4.4,3.3-5.6,5.7c-2.7,5.3-2.7,11.6,0,17c1.3,2.4,3.3,4.4,5.6,5.7c2.5,1.4,5.4,2.1,8.3,2
		c5.3,0,9.8-2.2,13.5-6.7l10.3,9.3c-2.8,3.5-6.4,6.2-10.5,8c-4.5,1.9-9.3,2.8-14.2,2.8C326,149.4,320.4,148.1,315.4,145.5z"/>
	<path class="st1" d="M418.9,91.3v56.9h-16.2V126h-22.1v22.2h-16.2V91.3h16.2v21.4h22.1V91.3H418.9z"/>
	<path class="st1" d="M429.7,91.3h16.2v56.9h-16.2V91.3z"/>
	<path class="st1" d="M474.3,104.1h-17.6V91.3h51.3v12.8h-17.5v44.1h-16.2V104.1z"/>
	<path class="st1" d="M545.2,137.1H521l-4.5,11.1h-16.5l25.3-56.9h16l25.4,56.9h-16.9L545.2,137.1z M540.5,125.3l-7.4-18.2
		l-7.4,18.2L540.5,125.3z"/>
</g>
<path class="st1" d="M229.6,20.3l-25,56.1h-5.9l-25-56.1h6.5L201.8,69l21.8-48.7H229.6z"/>
<path class="st1" d="M236.2,23.8c-0.8-0.8-1.2-1.8-1.2-2.9c0-1.1,0.4-2.1,1.2-2.8c0.8-0.8,1.9-1.2,3-1.2c1.1,0,2.2,0.4,3,1.2
	c0.8,0.7,1.2,1.7,1.2,2.8c0,1.1-0.4,2.2-1.2,3C240.5,25.4,237.9,25.4,236.2,23.8L236.2,23.8z M236.3,34.2h5.7v42.2h-5.7V34.2z"/>
<path class="st1" d="M259.8,75.3c-2.7-0.7-5.2-2-7.4-3.7l2.6-4.5c2,1.5,4.3,2.7,6.7,3.4c2.7,0.9,5.5,1.3,8.4,1.3
	c3.9,0,6.7-0.6,8.6-1.8c1.8-1.1,2.8-3,2.8-5.1c0.1-1.4-0.5-2.7-1.5-3.6c-1.1-0.9-2.5-1.6-3.9-2c-2-0.6-4.1-1-6.2-1.3
	c-2.8-0.5-5.6-1.1-8.3-2c-2.1-0.6-3.9-1.8-5.4-3.4c-1.6-1.8-2.4-4.2-2.2-6.7c0-3.4,1.6-6.7,4.4-8.7c3-2.2,7.1-3.4,12.4-3.4
	c2.8,0,5.5,0.4,8.2,1.1c2.4,0.6,4.7,1.5,6.8,2.8l-2.5,4.6c-3.7-2.5-8.1-3.7-12.5-3.6c-3.7,0-6.4,0.6-8.3,1.9c-1.7,1.1-2.8,3-2.8,5
	c-0.1,1.5,0.5,2.9,1.6,3.8c1.1,1,2.5,1.7,3.9,2.1c2.1,0.6,4.3,1,6.5,1.4c2.8,0.5,5.5,1.1,8.2,1.9c2,0.6,3.8,1.7,5.2,3.3
	c1.5,1.8,2.3,4.1,2.2,6.4c0.1,3.5-1.7,6.9-4.6,8.8c-3.1,2.2-7.4,3.2-12.9,3.2C266.3,76.8,263,76.3,259.8,75.3z"/>
<path class="st1" d="M298.9,23.8c-0.8-0.8-1.2-1.8-1.2-2.9c0-1.1,0.4-2.1,1.2-2.8c0.8-0.8,1.9-1.2,3-1.2c1.1,0,2.2,0.4,3,1.2
	c0.8,0.7,1.2,1.7,1.2,2.8c0,1.1-0.4,2.2-1.2,3C303.2,25.4,300.6,25.4,298.9,23.8L298.9,23.8z M299,34.2h5.7v42.2H299V34.2z"/>
<path class="st1" d="M345.4,73.8c-1.2,1-2.5,1.8-4,2.2c-1.6,0.5-3.3,0.8-5,0.8c-4,0-7-1.1-9.2-3.2c-2.1-2.1-3.2-5.2-3.2-9.1V39h-7.6
	v-4.8h7.6V25h5.7v9.2h12.9V39h-12.9v25.2c-0.1,2.1,0.5,4.1,1.9,5.7c1.5,1.4,3.4,2.1,5.5,2c1.2,0,2.3-0.2,3.4-0.6
	c1.1-0.3,2-0.9,2.9-1.6L345.4,73.8z"/>
</svg>
