<svg xmlns="http://www.w3.org/2000/svg" viewBox="0 0 170 170">
  <g fill="#2a1f17">
    <path d="M120.6,72.7c0.4,2.3,0.9,4.3,1.3,6.5h2.9c12.2,0,24.3,0,36.5,0c0.8,0,1.6,0,2.4,0.1c2.4,0.4,4,2.7,3.6,5.1c-0.3,1.8-1.7,3.3-3.6,3.6c-0.8,0.1-1.6,0.1-2.4,0.1c-12.2,0-24.3,0-36.5,0h-2.9l-1.4,6.5c7,0,13.8,0,20.5,0c1.9,0,3.9-0.1,5.8,0.1c2.4,0.2,4.1,2.2,4,4.6c-0.1,1.9-1.5,3.5-3.3,3.9c-0.9,0.2-1.9,0.3-2.9,0.2c-8.6,0-17.2,0-25.8,0c-1.4,0-2.7,0.7-3.5,1.8c-3.2,3.6-6.6,6.9-10.2,10.2c-1.1,0.8-1.7,2-1.7,3.4c0.1,9.1,0,18.2,0,27.3c0,3.3-1.5,5.2-4,5.4c-2.8,0.2-4.8-1.6-4.8-4.7c0-8,0-15.9,0-23.9v-2.2l-6.6,1.3v3c0,12.3,0,24.6,0,36.9c0,3.5-1.6,5.5-4.4,5.5s-4.4-2-4.4-5.4c0-12.3,0-24.6,0-36.9v-3l-7-1.5c0,0.9-0.1,1.8-0.1,2.6c0,7.7,0,15.5,0,23.2c0,3.4-1.5,5.2-4.3,5.2c-2.7,0-4.4-1.9-4.5-5.2c0-9.3-0.1-18.5,0-27.8c0-1.4-0.7-2.7-1.8-3.6c-3.4-3.1-6.6-6.3-9.6-9.8c-0.8-1.2-2.2-1.8-3.6-1.8c-9,0.1-18,0-27,0c-3.2,0-5.1-1.3-5.4-3.7c-0.5-2.9,1.5-5.1,4.6-5.1c7.8,0,15.6,0,23.4,0h2.7L45.4,88h-4.7C29.1,88,17.6,88,6,88c-0.7,0-1.4,0-2.2-0.1c-2.4-0.3-4.1-2.5-3.8-4.9c0.3-1.9,1.8-3.5,3.7-3.8c0.8-0.1,1.6-0.1,2.4-0.1c12.1,0,24.1,0,36.2,0h3c0.4-2.2,0.9-4.2,1.4-6.5H44c-7.6,0-15.3,0-22.9,0c-3.4,0-5.2-1.6-5.2-4.3c0-2.7,1.9-4.4,5.2-4.4c9,0,18-0.1,27,0c1.6,0.1,3.1-0.7,4-2c2.9-3.4,6.1-6.6,9.4-9.6c1.2-0.9,1.9-2.3,1.8-3.8c-0.1-9.2-0.1-18.3,0-27.5c0-3.1,1.5-4.9,3.9-5.2c2.8-0.3,4.8,1.6,4.8,4.7c0,7.8,0,15.6,0,23.4v2.9l7.1-1.5v-3c0-12.1,0-24.1,0-36.2c0-0.7,0-1.4,0-2.2c0.2-2.4,2.2-4.1,4.6-4C86.2,0.1,88,2,88,4.2c0.1,1.5,0,3.1,0,4.6c0,11.3,0,22.5,0,33.8v2.7l6.6,1.4v-2.7c0-7.6,0-15.3,0-22.9c0-3.4,1.5-5.2,4.3-5.2c2.7,0,4.5,1.9,4.5,5.1c0,9.2,0,18.3,0,27.5c0,1.3,0.6,2.6,1.7,3.4c3.5,3.1,6.9,6.5,10,10c1,1.3,2.5,2.1,4.2,2c8.4-0.1,16.7,0,25.1,0c0.8,0,1.6,0,2.4,0.1c2.4,0.1,4.2,2.2,4,4.6c0,0,0,0,0,0c0,2.3-1.9,4.1-4.2,4.1c-0.1,0-0.2,0-0.2,0c-7.6,0.1-15.3,0-22.9,0L120.6,72.7z M83.6,54.1c-16.3,0-29.5,13.3-29.5,29.6c0,16.3,13.3,29.5,29.6,29.5c16.3,0,29.5-13.2,29.5-29.5c0.1-16.2-12.9-29.4-29.1-29.6C83.9,54.1,83.8,54.1,83.6,54.1z"/>
    <path d="M76,71.6c-1,0-2,0.2-2.9,0.6c-1.7,0.8-3.1,2.1-3.9,3.7c-0.6,1.3-1,2.8-1,4.3c0,1.5,0.3,2.9,0.9,4.3c1.3,3,3.6,5.4,6,7.5c2.8,2.5,5.6,4.8,8.6,7c3-2.2,5.8-4.5,8.6-7c2.4-2.1,4.8-4.5,6-7.5c0.6-1.4,0.9-2.8,0.9-4.3c0-1.5-0.3-2.9-1-4.3c-0.8-1.7-2.2-3-3.9-3.7c-1.7-0.7-3.5-0.8-5.2-0.2c-1.4,0.5-2.7,1.4-3.7,2.6c-1,1.2-1.6,2.7-1.8,4.3c-0.2-1.6-0.8-3.1-1.8-4.3c-0.9-1.2-2.2-2.1-3.7-2.6C77.5,71.7,76.7,71.6,76,71.6z"/>
  </g>
</svg>
